<mxfile host="Electron" agent="Mozilla/5.0 (Macintosh; Intel Mac OS X 10_15_7) AppleWebKit/537.36 (KHTML, like Gecko) draw.io/27.0.9 Chrome/134.0.6998.205 Electron/35.4.0 Safari/537.36" version="27.0.9">
  <diagram name="Page-1" id="Cu_cPrJROhvFSQZcI2qJ">
    <mxGraphModel dx="1425" dy="877" grid="1" gridSize="10" guides="1" tooltips="1" connect="1" arrows="1" fold="1" page="1" pageScale="1" pageWidth="1654" pageHeight="1169" math="0" shadow="0">
      <root>
        <mxCell id="0" />
        <mxCell id="1" parent="0" />
        <mxCell id="DwJGrVYiUpVbkn-kBCEP-4" style="edgeStyle=orthogonalEdgeStyle;rounded=0;orthogonalLoop=1;jettySize=auto;html=1;exitX=1;exitY=0.5;exitDx=0;exitDy=0;entryX=0;entryY=0.5;entryDx=0;entryDy=0;strokeColor=#006658;fontColor=default;fillColor=#21C0A5;labelBackgroundColor=none;" edge="1" parent="1" source="DwJGrVYiUpVbkn-kBCEP-1" target="DwJGrVYiUpVbkn-kBCEP-3">
          <mxGeometry relative="1" as="geometry" />
        </mxCell>
        <mxCell id="DwJGrVYiUpVbkn-kBCEP-1" value="Color&lt;br&gt;Image" style="whiteSpace=wrap;html=1;aspect=fixed;labelBackgroundColor=none;fillColor=#21C0A5;strokeColor=#006658;fontColor=#5C5C5C;" vertex="1" parent="1">
          <mxGeometry x="190" y="420" width="80" height="80" as="geometry" />
        </mxCell>
        <mxCell id="DwJGrVYiUpVbkn-kBCEP-6" style="edgeStyle=orthogonalEdgeStyle;rounded=0;orthogonalLoop=1;jettySize=auto;html=1;exitX=1;exitY=0.5;exitDx=0;exitDy=0;entryX=0;entryY=0.5;entryDx=0;entryDy=0;strokeColor=#006658;fontColor=default;fillColor=#21C0A5;labelBackgroundColor=none;" edge="1" parent="1" source="DwJGrVYiUpVbkn-kBCEP-3" target="DwJGrVYiUpVbkn-kBCEP-5">
          <mxGeometry relative="1" as="geometry" />
        </mxCell>
        <mxCell id="DwJGrVYiUpVbkn-kBCEP-3" value="Gray&lt;div&gt;Image&lt;/div&gt;" style="whiteSpace=wrap;html=1;aspect=fixed;strokeColor=#006658;fontColor=#5C5C5C;fillColor=#21C0A5;labelBackgroundColor=none;" vertex="1" parent="1">
          <mxGeometry x="340" y="420" width="80" height="80" as="geometry" />
        </mxCell>
        <mxCell id="DwJGrVYiUpVbkn-kBCEP-10" value="Detected Coreners" style="edgeStyle=orthogonalEdgeStyle;rounded=0;orthogonalLoop=1;jettySize=auto;html=1;exitX=1;exitY=0.5;exitDx=0;exitDy=0;strokeColor=#006658;fontColor=default;fillColor=#21C0A5;labelBackgroundColor=none;" edge="1" parent="1" source="DwJGrVYiUpVbkn-kBCEP-5" target="DwJGrVYiUpVbkn-kBCEP-9">
          <mxGeometry relative="1" as="geometry" />
        </mxCell>
        <mxCell id="DwJGrVYiUpVbkn-kBCEP-5" value="Apriltag&lt;div&gt;Detector&lt;/div&gt;" style="rhombus;whiteSpace=wrap;html=1;strokeColor=#006658;fontColor=#5C5C5C;fillColor=#21C0A5;labelBackgroundColor=none;" vertex="1" parent="1">
          <mxGeometry x="480" y="405" width="110" height="110" as="geometry" />
        </mxCell>
        <mxCell id="DwJGrVYiUpVbkn-kBCEP-8" style="edgeStyle=orthogonalEdgeStyle;rounded=0;orthogonalLoop=1;jettySize=auto;html=1;exitX=1;exitY=0.5;exitDx=0;exitDy=0;entryX=0;entryY=0.5;entryDx=0;entryDy=0;strokeColor=#006658;fontColor=default;fillColor=#21C0A5;labelBackgroundColor=none;" edge="1" parent="1" source="DwJGrVYiUpVbkn-kBCEP-7" target="DwJGrVYiUpVbkn-kBCEP-1">
          <mxGeometry relative="1" as="geometry" />
        </mxCell>
        <mxCell id="DwJGrVYiUpVbkn-kBCEP-7" value="Camera" style="shape=hexagon;perimeter=hexagonPerimeter2;whiteSpace=wrap;html=1;fixedSize=1;strokeColor=#006658;fontColor=#5C5C5C;fillColor=#21C0A5;labelBackgroundColor=none;" vertex="1" parent="1">
          <mxGeometry x="20" y="425" width="110" height="70" as="geometry" />
        </mxCell>
        <mxCell id="DwJGrVYiUpVbkn-kBCEP-18" style="edgeStyle=orthogonalEdgeStyle;rounded=0;orthogonalLoop=1;jettySize=auto;html=1;exitX=1;exitY=0.5;exitDx=0;exitDy=0;strokeColor=#006658;fontColor=#5C5C5C;fillColor=#21C0A5;" edge="1" parent="1" source="DwJGrVYiUpVbkn-kBCEP-9" target="DwJGrVYiUpVbkn-kBCEP-17">
          <mxGeometry relative="1" as="geometry" />
        </mxCell>
        <mxCell id="DwJGrVYiUpVbkn-kBCEP-9" value="Pose Estimation" style="rhombus;whiteSpace=wrap;html=1;strokeColor=#006658;fontColor=#5C5C5C;fillColor=#21C0A5;labelBackgroundColor=none;" vertex="1" parent="1">
          <mxGeometry x="780" y="405" width="100" height="110" as="geometry" />
        </mxCell>
        <mxCell id="DwJGrVYiUpVbkn-kBCEP-16" style="edgeStyle=orthogonalEdgeStyle;rounded=0;orthogonalLoop=1;jettySize=auto;html=1;strokeColor=#006658;fontColor=#5C5C5C;fillColor=#21C0A5;" edge="1" parent="1" source="DwJGrVYiUpVbkn-kBCEP-15" target="DwJGrVYiUpVbkn-kBCEP-9">
          <mxGeometry relative="1" as="geometry" />
        </mxCell>
        <mxCell id="DwJGrVYiUpVbkn-kBCEP-15" value="Physical&amp;nbsp;&lt;div&gt;Corners&lt;/div&gt;" style="ellipse;whiteSpace=wrap;html=1;aspect=fixed;strokeColor=#006658;fontColor=#5C5C5C;fillColor=#21C0A5;" vertex="1" parent="1">
          <mxGeometry x="790" y="250" width="80" height="80" as="geometry" />
        </mxCell>
        <mxCell id="DwJGrVYiUpVbkn-kBCEP-17" value="Transformation&lt;div&gt;Matrix&lt;/div&gt;&lt;div&gt;Camera -&amp;gt; Tag&lt;/div&gt;" style="shape=parallelogram;perimeter=parallelogramPerimeter;whiteSpace=wrap;html=1;fixedSize=1;strokeColor=#006658;fontColor=#5C5C5C;fillColor=#21C0A5;" vertex="1" parent="1">
          <mxGeometry x="990" y="420" width="170" height="80" as="geometry" />
        </mxCell>
      </root>
    </mxGraphModel>
  </diagram>
</mxfile>
